<svg xmlns="http://www.w3.org/2000/svg" width="187.523" height="113.556" viewBox="0 0 187.523 113.556">
  <g id="Group_197" data-name="Group 197" transform="translate(-366 267)">
    <path id="Path_1" data-name="Path 1" d="M121.777,94.791v-1.4l.1,0q1.548,0,2.156-2.061l1.416.217a4.383,4.383,0,0,1-1.282,2.425,3.35,3.35,0,0,1-2.3.816l-.094,0Zm0-4.807h0v-1.4h2.265a3.87,3.87,0,0,0-.547-1.944A2,2,0,0,0,121.8,85.7h-.027V84.3h.036a3.221,3.221,0,0,1,2.63,1.341,6.185,6.185,0,0,1,1.054,3.884l-.007.455ZM127.6,91.57h0l1.362-.265a2.49,2.49,0,0,0,.661,1.574,2.308,2.308,0,0,0,2.821.068,1.478,1.478,0,0,0,.491-1.139,1.116,1.116,0,0,0-.422-.929,5.269,5.269,0,0,0-1.4-.565,10.1,10.1,0,0,1-2.145-.851,2.371,2.371,0,0,1-.84-.935,2.9,2.9,0,0,1-.3-1.332,2.821,2.821,0,0,1,.809-2.09,3.059,3.059,0,0,1,2.25-.8,3.629,3.629,0,0,1,1.588.332,2.534,2.534,0,0,1,1.052.887,3.917,3.917,0,0,1,.5,1.6l-1.344.229a1.643,1.643,0,0,0-.52-1.221,1.6,1.6,0,0,0-1.243-.425,2.068,2.068,0,0,0-1.335.365,1.157,1.157,0,0,0-.435.929,1.054,1.054,0,0,0,.416.88,7.366,7.366,0,0,0,1.493.6,11.774,11.774,0,0,1,2.212.884,2.237,2.237,0,0,1,.783.89,3,3,0,0,1,.281,1.336,3.131,3.131,0,0,1-.9,2.325,3.357,3.357,0,0,1-2.459.887q-2.921,0-3.386-3.232ZM121.777,84.3h0v1.4a2,2,0,0,0-1.549.782,3.414,3.414,0,0,0-.715,2.1h2.265v1.4h-2.351a4.4,4.4,0,0,0,.774,2.551,2.1,2.1,0,0,0,1.577.859v1.4a3.406,3.406,0,0,1-2.7-1.324,6.014,6.014,0,0,1-1.066-3.832,6.3,6.3,0,0,1,1.076-3.964A3.337,3.337,0,0,1,121.777,84.3ZM107.523,98.638h0V97.226a2.1,2.1,0,0,0,1.264-.434,2.276,2.276,0,0,0,.732-1.309,12.773,12.773,0,0,0,.121-2.229,3.206,3.206,0,0,1-1.006.98,2.368,2.368,0,0,1-1.111.33V93.156a1.922,1.922,0,0,0,1.576-.887,4.828,4.828,0,0,0,.652-2.825,4.768,4.768,0,0,0-.671-2.809,1.98,1.98,0,0,0-1.557-.921V84.307a2.437,2.437,0,0,1,1.188.358,3.283,3.283,0,0,1,1.05,1.078V84.532h1.267V93.2a10.345,10.345,0,0,1-.372,3.3,3.194,3.194,0,0,1-1.22,1.557,3.5,3.5,0,0,1-1.913.572Zm6.533-15.967h0V80.713h1.372v1.958Zm0,11.9h0V84.532h1.372V94.566Zm-6.533-10.26h0v1.407l-.076,0a1.842,1.842,0,0,0-1.505.923,4.771,4.771,0,0,0-.647,2.735,5.057,5.057,0,0,0,.642,2.881,1.887,1.887,0,0,0,1.577.906h.009v1.407c-.042,0-.087,0-.13,0a2.933,2.933,0,0,1-2.417-1.249,6.175,6.175,0,0,1-1.1-3.844,7.543,7.543,0,0,1,.487-2.826,3.891,3.891,0,0,1,1.273-1.777A2.959,2.959,0,0,1,107.4,84.3c.041,0,.082,0,.122,0Zm0,12.919h0v1.412l-.13,0a3.258,3.258,0,0,1-2.426-.862,3.163,3.163,0,0,1-.821-2.38l1.343.246a1.758,1.758,0,0,0,.56,1.2,1.958,1.958,0,0,0,1.3.39c.061,0,.12,0,.178,0Zm-9.471-2.433h0v-1.4h.036a2.016,2.016,0,0,0,1.665-.961,6.313,6.313,0,0,0,0-5.773,2.1,2.1,0,0,0-1.7-.948V84.3h0a3.379,3.379,0,0,1,2.712,1.325,5.844,5.844,0,0,1,1.092,3.816,6.306,6.306,0,0,1-1.073,4.025,3.362,3.362,0,0,1-2.732,1.323Zm0-10.489h0v1.41h-.038a2.026,2.026,0,0,0-1.671.955,6.366,6.366,0,0,0,.01,5.776,2.09,2.09,0,0,0,1.7.951v1.4a3.372,3.372,0,0,1-2.718-1.326,7.629,7.629,0,0,1-.009-7.838A3.364,3.364,0,0,1,98.052,84.3ZM83.985,94.792h0v-1.4h.035a2.013,2.013,0,0,0,1.664-.961,6.308,6.308,0,0,0,0-5.773,2.1,2.1,0,0,0-1.7-.948V84.3h0A3.378,3.378,0,0,1,86.7,85.628a5.843,5.843,0,0,1,1.092,3.816,6.305,6.305,0,0,1-1.073,4.025A3.361,3.361,0,0,1,83.985,94.792Zm6.319-.226h0V80.713h1.369V94.566ZM83.985,84.3h0v1.41h-.038a2.028,2.028,0,0,0-1.672.955,6.374,6.374,0,0,0,.009,5.776,2.094,2.094,0,0,0,1.7.951v1.4a3.372,3.372,0,0,1-2.719-1.326,7.626,7.626,0,0,1-.01-7.838A3.365,3.365,0,0,1,83.985,84.3ZM46.271,94.791h0v-1.4l.1,0q1.548,0,2.156-2.061l1.417.217a4.389,4.389,0,0,1-1.283,2.425,3.347,3.347,0,0,1-2.3.816l-.094,0Zm0-4.807h0v-1.4h2.264a3.865,3.865,0,0,0-.547-1.944A2,2,0,0,0,46.3,85.7h-.027V84.3h.036a3.221,3.221,0,0,1,2.63,1.341,6.183,6.183,0,0,1,1.054,3.884l-.006.455Zm11.672.906h0l1.353.219a4.6,4.6,0,0,1-1.172,2.739,3.047,3.047,0,0,1-2.251.945,3.19,3.19,0,0,1-2.626-1.326,6.328,6.328,0,0,1-1.031-3.929,6.23,6.23,0,0,1,1.041-3.925A3.271,3.271,0,0,1,55.928,84.3a3.019,3.019,0,0,1,2.123.793,3.938,3.938,0,0,1,1.1,2.382l-1.334.255a2.951,2.951,0,0,0-.681-1.525,1.548,1.548,0,0,0-1.165-.507,2.009,2.009,0,0,0-1.684.914,4.967,4.967,0,0,0-.666,2.9,5.314,5.314,0,0,0,.64,2.967A1.923,1.923,0,0,0,55.9,93.4a1.745,1.745,0,0,0,1.337-.609A3.359,3.359,0,0,0,57.943,90.889Zm3.447,3.677h0V80.713h1.372v4.97a3.471,3.471,0,0,1,1.1-1.035,2.711,2.711,0,0,1,1.35-.345,2.617,2.617,0,0,1,2.047.838,4.665,4.665,0,0,1,.752,3.064v6.361H66.634V88.206a3,3,0,0,0-.458-1.87,1.525,1.525,0,0,0-1.257-.569,1.952,1.952,0,0,0-1.525.729,4,4,0,0,0-.63,2.58v5.49Zm9.649,0h0V84.532h1.241v1.425a3.267,3.267,0,0,1,1.1-1.242,2.727,2.727,0,0,1,1.49-.412,2.8,2.8,0,0,1,1.207.261,2.488,2.488,0,0,1,.894.681,2.764,2.764,0,0,1,.51,1.09,9.276,9.276,0,0,1,.169,2.061v6.17H76.264V88.46a5.013,5.013,0,0,0-.188-1.615,1.55,1.55,0,0,0-1.5-1.068A1.906,1.906,0,0,0,73,86.525a4.233,4.233,0,0,0-.589,2.561v5.481Zm-33.767,0h0V82.349H33.581V80.713h8.888v1.635H38.757V94.566Zm9-10.263h0v1.4a2,2,0,0,0-1.549.782,3.419,3.419,0,0,0-.716,2.1h2.265v1.4H43.92a4.393,4.393,0,0,0,.774,2.551,2.1,2.1,0,0,0,1.578.859v1.4a3.4,3.4,0,0,1-2.7-1.324A6.01,6.01,0,0,1,42.5,89.635a6.3,6.3,0,0,1,1.076-3.964A3.336,3.336,0,0,1,46.271,84.3Z" transform="translate(340.611 -292.477)" fill="#a89044"/>
    <path id="Path_2" data-name="Path 2" d="M90.366,48.444h0l10.019-.632a7.2,7.2,0,0,0,.985,3.749,5,5,0,0,0,4.439,2.079,5.457,5.457,0,0,0,3.548-1.063,3.559,3.559,0,0,0,1.426-2.47,2.885,2.885,0,0,0-.939-2.39c-.711-.7-2.434-1.367-5.188-1.99q-6.747-1.571-9.452-4.164a7.737,7.737,0,0,1-2.371-6.626,9.832,9.832,0,0,1,1.958-5,11.461,11.461,0,0,1,4.879-3.7,21.981,21.981,0,0,1,8.449-1.343q6.5,0,9.691,2.446t3.367,7.784l-9.921.584a4.891,4.891,0,0,0-1.358-3.373,4.9,4.9,0,0,0-3.378-1.047,4.428,4.428,0,0,0-2.823.783,2.675,2.675,0,0,0-1.092,1.911,1.75,1.75,0,0,0,.627,1.471,7.813,7.813,0,0,0,3.407,1.263,40.007,40.007,0,0,1,9.56,3.037,8.584,8.584,0,0,1,4.892,8.887,11.885,11.885,0,0,1-2.346,6.083,12.774,12.774,0,0,1-5.415,4.229,21.068,21.068,0,0,1-8.285,1.439q-8.637,0-11.668-3.373A12.22,12.22,0,0,1,90.366,48.444Zm37.458-22.971h10.468l-1.065,12.013h11.446l1.065-12.013h10.515L157.213,59.8H146.7l1.23-13.883H136.481L135.251,59.8H124.783Zm-72.159,0h4.087l-4.087,5.458Zm15.41,28.661V46.71h3.735L72.158,34.369,71.076,37.14V25.474h7.691l9.7,34.328H77.508l-1.162-5.667Zm0-28.661H67.352L55.666,50.907v8.9h6.61l2.143-5.667h6.658V46.71H67.341l3.735-9.57Zm-48.187,0H34.517L40.33,37.063,48.2,25.474h7.47v5.458L44.811,45.423,43.538,59.8H33.046l1.274-14.379L22.889,25.474ZM55.666,50.907h0l-4.087,8.9h4.087Z" transform="translate(343.111 -279.983)" fill="#e23827"/>
    <path id="Path_3" data-name="Path 3" d="M87.521,25.6l9.7,34.333H86.265L85.1,54.268H79.829V46.84h3.739L80.909,34.5l-1.08,2.771V25.6ZM76.1,46.84l3.731-9.571V25.6H76.105L64.421,51.039v8.9h6.612l2.138-5.667h6.658V46.84ZM60.33,59.935h4.091v-8.9Z" transform="translate(334.356 -280.146)" fill="#e23827"/>
    <path id="Path_4" data-name="Path 4" d="M145.429,16.393c22.735.587,51.261,5.265,52.781,21.383,2.767,29.389-69.578,54.67-110.991,63.489C125.3,95.974,167.208,84.9,200.381,64.23c14.645-9.125,27.006-23.328,19.33-34.39-11.733-16.911-56.762-14.476-74.282-13.447Z" transform="translate(328.069 -277.918)" fill="#005ba1" fill-rule="evenodd"/>
    <path id="Path_5" data-name="Path 5" d="M255.2,13.979a4.367,4.367,0,1,1,4.366,4.424A4.4,4.4,0,0,1,255.2,13.979Zm8.022,0a3.7,3.7,0,0,0-2.71-3.576A3.636,3.636,0,0,0,256.4,12.13a3.739,3.739,0,0,0,.582,4.47,3.619,3.619,0,0,0,3.984.8A3.7,3.7,0,0,0,263.226,13.979Zm-2.293,2.669-1.366-2.342h-.777v2.342h-.77V11.2H259.4q1.941,0,1.942,1.509a1.511,1.511,0,0,1-1.043,1.483l1.47,2.459Zm-2.143-4.782v1.811q.1.013.5.013a1.823,1.823,0,0,0,1.01-.193.874.874,0,0,0,.259-.738q0-.9-1.165-.9h-.3Z" transform="translate(288.789 -276.555)" fill="#fff"/>
    <g id="Group_1" data-name="Group 1" transform="translate(366.462 -168.031)">
      <path id="Path_6" data-name="Path 6" d="M29.9,148.325H27.726l-.4-9.419-1.768,9.419H23.491l2.322-11.272h3.263l.342,7.9,3.795-7.9h3.3l-2.33,11.272H32.1l2.193-9.349Z" transform="translate(-23.491 -137.053)" fill="#fff"/>
      <path id="Path_7" data-name="Path 7" d="M40.591,145.772a5.082,5.082,0,0,1,1.264-3.618,4.336,4.336,0,0,1,3.32-1.35,3.775,3.775,0,0,1,2.785,1,3.608,3.608,0,0,1,1,2.679,5.067,5.067,0,0,1-1.252,3.43,4.214,4.214,0,0,1-3.355,1.445,4.286,4.286,0,0,1-2.019-.461,2.99,2.99,0,0,1-1.313-1.307A3.925,3.925,0,0,1,40.591,145.772ZM46.8,144.2a1.743,1.743,0,0,0-.452-1.257,1.538,1.538,0,0,0-1.165-.473,1.937,1.937,0,0,0-1.252.442,2.848,2.848,0,0,0-.85,1.284,4.592,4.592,0,0,0-.3,1.549,1.983,1.983,0,0,0,.47,1.391,1.535,1.535,0,0,0,1.184.515,1.84,1.84,0,0,0,1.5-.776A4.194,4.194,0,0,0,46.8,144.2Z" transform="translate(-27.488 -137.891)" fill="#fff"/>
      <path id="Path_8" data-name="Path 8" d="M53.892,141h2.034l-.327,1.584a3.115,3.115,0,0,1,2.466-1.777,2.5,2.5,0,0,1,1.01.239l-.835,1.807a1.826,1.826,0,0,0-.63-.108,1.926,1.926,0,0,0-1.142.43,2.882,2.882,0,0,0-.907,1.15,11.574,11.574,0,0,0-.645,2.28l-.531,2.56H52.208Z" transform="translate(-30.206 -137.893)" fill="#fff"/>
      <path id="Path_9" data-name="Path 9" d="M67.99,145.764H62.526c-.005.088-.008.154-.008.2a1.867,1.867,0,0,0,.459,1.315,1.465,1.465,0,0,0,1.119.5,1.865,1.865,0,0,0,1.693-1.138l1.95.33a4.145,4.145,0,0,1-1.521,1.788,3.95,3.95,0,0,1-2.136.6,3.525,3.525,0,0,1-2.641-1.042,3.778,3.778,0,0,1-1.017-2.757,5.062,5.062,0,0,1,.918-2.983,4.117,4.117,0,0,1,3.575-1.768,3.078,3.078,0,0,1,2.353.927,3.638,3.638,0,0,1,.873,2.595A6.243,6.243,0,0,1,67.99,145.764Zm-1.837-1.346c.005-.1.008-.172.008-.222a2,2,0,0,0-.4-1.361,1.369,1.369,0,0,0-1.078-.454,1.7,1.7,0,0,0-1.211.515,2.763,2.763,0,0,0-.725,1.522Z" transform="translate(-32.126 -137.891)" fill="#fff"/>
      <path id="Path_10" data-name="Path 10" d="M77.284,141.876l.334-1.638H78.68l.266-1.307,2.5-1.522-.585,2.829h1.328l-.334,1.638H80.517l-.706,3.422a10.717,10.717,0,0,0-.19,1.062.5.5,0,0,0,.159.4.88.88,0,0,0,.577.142q.144,0,.721-.054l-.342,1.638a5.713,5.713,0,0,1-1.153.115,2.546,2.546,0,0,1-1.677-.45,1.56,1.56,0,0,1-.524-1.249,11.8,11.8,0,0,1,.281-1.738l.675-3.283Z" transform="translate(-36.07 -137.133)" fill="#fff"/>
      <path id="Path_11" data-name="Path 11" d="M85.341,148.325H83.163l2.33-11.272h2.178l-.835,4.013a5.717,5.717,0,0,1,1.374-.842,3.611,3.611,0,0,1,1.366-.258,2.091,2.091,0,0,1,1.548.569,2.016,2.016,0,0,1,.569,1.491,8.439,8.439,0,0,1-.212,1.523l-.987,4.774H88.316l1.009-4.867a6.981,6.981,0,0,0,.159-1.015.877.877,0,0,0-.25-.654.935.935,0,0,0-.683-.246,1.7,1.7,0,0,0-1.048.384,3.328,3.328,0,0,0-.994,1.246,11.233,11.233,0,0,0-.5,1.915Z" transform="translate(-37.445 -137.053)" fill="#fff"/>
      <path id="Path_12" data-name="Path 12" d="M98.408,143.31l-2.125-.185a3.236,3.236,0,0,1,1.271-1.707,4.209,4.209,0,0,1,2.4-.615,3.486,3.486,0,0,1,2.3.635,1.963,1.963,0,0,1,.744,1.549,5.151,5.151,0,0,1-.065.784q-.065.415-.452,2.183a11.355,11.355,0,0,0-.319,2.046,4.259,4.259,0,0,0,.182,1.161H100.23a4.261,4.261,0,0,1-.159-.923,3.344,3.344,0,0,1-1.1.827,2.967,2.967,0,0,1-1.252.288,2.22,2.22,0,0,1-1.655-.665,2.339,2.339,0,0,1-.652-1.711,2.493,2.493,0,0,1,.717-1.868,4.14,4.14,0,0,1,2.561-.846,10.05,10.05,0,0,0,2.079-.315,2.751,2.751,0,0,0,.137-.739.744.744,0,0,0-.281-.591,1.259,1.259,0,0,0-.835-.239,1.557,1.557,0,0,0-.922.242A1.2,1.2,0,0,0,98.408,143.31Zm2.072,2.045a4.3,4.3,0,0,1-.524.1,4.918,4.918,0,0,0-2.14.585.893.893,0,0,0-.356.745.871.871,0,0,0,.273.65.992.992,0,0,0,.721.265,1.888,1.888,0,0,0,.93-.242,1.643,1.643,0,0,0,.653-.623,4.3,4.3,0,0,0,.383-1.188Z" transform="translate(-40.308 -137.89)" fill="#fff"/>
      <path id="Path_13" data-name="Path 13" d="M108.116,141h2.064l-.212,1.061a5.671,5.671,0,0,1,1.446-.964,3.551,3.551,0,0,1,1.415-.289,2.109,2.109,0,0,1,1.567.577,2.076,2.076,0,0,1,.573,1.53,9.8,9.8,0,0,1-.251,1.63l-.949,4.621h-2.178l.956-4.636a10.368,10.368,0,0,0,.212-1.238.891.891,0,0,0-.247-.665.939.939,0,0,0-.687-.242,1.913,1.913,0,0,0-1.062.407,2.825,2.825,0,0,0-.918,1.077,9.2,9.2,0,0,0-.547,1.946l-.691,3.352h-2.178Z" transform="translate(-42.885 -137.892)" fill="#fff"/>
      <path id="Path_14" data-name="Path 14" d="M132.588,149.22h-2.049l-.395-5.2-2.459,5.2h-2.019l-1.009-8.166h1.935l.561,5.475,2.512-5.475h1.98l.273,5.475,2.5-5.475H136.6Z" transform="translate(-47.147 -137.948)" fill="#fff"/>
      <path id="Path_15" data-name="Path 15" d="M141.807,148.325h-2.178l2.33-11.272h2.178l-.835,4.013a5.717,5.717,0,0,1,1.374-.842,3.614,3.614,0,0,1,1.366-.258,2.092,2.092,0,0,1,1.549.569,2.015,2.015,0,0,1,.568,1.491,8.5,8.5,0,0,1-.211,1.523l-.987,4.774h-2.179l1.01-4.867a6.957,6.957,0,0,0,.159-1.015.875.875,0,0,0-.25-.654.935.935,0,0,0-.683-.246,1.7,1.7,0,0,0-1.047.384,3.328,3.328,0,0,0-.994,1.246,11.235,11.235,0,0,0-.5,1.915Z" transform="translate(-50.648 -137.053)" fill="#fff"/>
      <path id="Path_16" data-name="Path 16" d="M154.874,143.31l-2.125-.185a3.237,3.237,0,0,1,1.271-1.707,4.211,4.211,0,0,1,2.4-.615,3.49,3.49,0,0,1,2.3.635,1.962,1.962,0,0,1,.744,1.549,5.152,5.152,0,0,1-.065.784q-.064.415-.451,2.183a11.288,11.288,0,0,0-.319,2.046,4.272,4.272,0,0,0,.182,1.161H156.7a4.257,4.257,0,0,1-.16-.923,3.332,3.332,0,0,1-1.1.827,2.966,2.966,0,0,1-1.252.288,2.22,2.22,0,0,1-1.654-.665,2.339,2.339,0,0,1-.652-1.711,2.493,2.493,0,0,1,.717-1.868,4.14,4.14,0,0,1,2.562-.846,10.051,10.051,0,0,0,2.079-.315,2.754,2.754,0,0,0,.136-.739.746.746,0,0,0-.28-.591,1.259,1.259,0,0,0-.835-.239,1.559,1.559,0,0,0-.923.242A1.206,1.206,0,0,0,154.874,143.31Zm2.072,2.045a4.293,4.293,0,0,1-.524.1,4.914,4.914,0,0,0-2.139.585.892.892,0,0,0-.357.745.872.872,0,0,0,.273.65.992.992,0,0,0,.721.265,1.894,1.894,0,0,0,.93-.242,1.646,1.646,0,0,0,.652-.623,4.284,4.284,0,0,0,.383-1.188Z" transform="translate(-53.511 -137.89)" fill="#fff"/>
      <path id="Path_17" data-name="Path 17" d="M163.571,141.876l.333-1.638h1.063l.266-1.307,2.5-1.522-.585,2.829h1.328l-.334,1.638H166.8L166.1,145.3a10.73,10.73,0,0,0-.19,1.062.506.506,0,0,0,.159.4.882.882,0,0,0,.577.142c.1,0,.336-.018.721-.054l-.342,1.638a5.718,5.718,0,0,1-1.154.115,2.549,2.549,0,0,1-1.678-.45,1.561,1.561,0,0,1-.523-1.249,11.84,11.84,0,0,1,.281-1.738l.675-3.283Z" transform="translate(-56.246 -137.133)" fill="#fff"/>
      <path id="Path_18" data-name="Path 18" d="M175.359,141.054h2.171l.547,4.068q.2,1.568.228,2.2a17.664,17.664,0,0,1,1.168-2.644l1.928-3.622h2.307l-4.978,8.966a12.554,12.554,0,0,1-.968,1.561,2.559,2.559,0,0,1-.849.7,2.6,2.6,0,0,1-1.2.254,5.772,5.772,0,0,1-1.556-.245l.19-1.646a2.728,2.728,0,0,0,.767.115q1,0,1.646-1.538Z" transform="translate(-58.723 -137.948)" fill="#fff"/>
      <path id="Path_19" data-name="Path 19" d="M186.338,145.772a5.078,5.078,0,0,1,1.263-3.618,4.335,4.335,0,0,1,3.32-1.35,3.775,3.775,0,0,1,2.785,1,3.608,3.608,0,0,1,1,2.679,5.068,5.068,0,0,1-1.252,3.43,4.214,4.214,0,0,1-3.354,1.445,4.281,4.281,0,0,1-2.018-.461,3,3,0,0,1-1.314-1.307A3.929,3.929,0,0,1,186.338,145.772Zm6.208-1.576a1.747,1.747,0,0,0-.451-1.257,1.537,1.537,0,0,0-1.165-.473,1.935,1.935,0,0,0-1.252.442,2.837,2.837,0,0,0-.85,1.284,4.589,4.589,0,0,0-.3,1.549,1.981,1.981,0,0,0,.471,1.391,1.534,1.534,0,0,0,1.184.515,1.841,1.841,0,0,0,1.5-.776A4.193,4.193,0,0,0,192.546,144.2Z" transform="translate(-61.569 -137.891)" fill="#fff"/>
      <path id="Path_20" data-name="Path 20" d="M199.924,141.054H202.1l-.995,4.837a7.711,7.711,0,0,0-.182,1.084.822.822,0,0,0,.258.608.9.9,0,0,0,.66.254,1.531,1.531,0,0,0,.569-.111,2.435,2.435,0,0,0,.576-.339,3.083,3.083,0,0,0,.531-.519,3.326,3.326,0,0,0,.441-.769,7.4,7.4,0,0,0,.311-1.153l.8-3.891h2.178l-1.685,8.166h-2.034l.228-1.108a4.1,4.1,0,0,1-2.906,1.3,1.977,1.977,0,0,1-2.132-2.122,10.6,10.6,0,0,1,.258-1.684Z" transform="translate(-64.466 -137.948)" fill="#fff"/>
      <path id="Path_21" data-name="Path 21" d="M216.447,141.876l.333-1.638h1.063l.266-1.307,2.5-1.522-.585,2.829h1.328l-.334,1.638H219.68l-.706,3.422a10.7,10.7,0,0,0-.19,1.062.506.506,0,0,0,.159.4.882.882,0,0,0,.577.142c.1,0,.336-.018.721-.054l-.341,1.638a5.72,5.72,0,0,1-1.154.115,2.549,2.549,0,0,1-1.678-.45,1.561,1.561,0,0,1-.523-1.249,11.817,11.817,0,0,1,.281-1.738l.675-3.283Z" transform="translate(-68.611 -137.133)" fill="#fff"/>
      <path id="Path_22" data-name="Path 22" d="M224.5,148.325h-2.178l2.33-11.272h2.178L226,141.066a5.725,5.725,0,0,1,1.373-.842,3.614,3.614,0,0,1,1.366-.258,2.091,2.091,0,0,1,1.548.569,2.016,2.016,0,0,1,.569,1.491,8.44,8.44,0,0,1-.212,1.523l-.987,4.774H227.48l1.009-4.867a7.021,7.021,0,0,0,.16-1.015.876.876,0,0,0-.251-.654.932.932,0,0,0-.683-.246,1.7,1.7,0,0,0-1.047.384,3.329,3.329,0,0,0-.994,1.246,11.222,11.222,0,0,0-.5,1.915Z" transform="translate(-69.985 -137.053)" fill="#fff"/>
      <path id="Path_23" data-name="Path 23" d="M236.16,140.159h2.177l-1.684,8.166h-2.178Zm.637-3.106h2.178l-.41,2h-2.177Z" transform="translate(-72.826 -137.053)" fill="#fff"/>
      <path id="Path_24" data-name="Path 24" d="M241.633,141H243.7l-.212,1.061a5.676,5.676,0,0,1,1.445-.964,3.553,3.553,0,0,1,1.416-.289,2.112,2.112,0,0,1,1.567.577,2.077,2.077,0,0,1,.572,1.531,9.8,9.8,0,0,1-.25,1.63l-.949,4.621h-2.178l.957-4.636a10.341,10.341,0,0,0,.212-1.238.89.89,0,0,0-.247-.665.938.938,0,0,0-.686-.242,1.912,1.912,0,0,0-1.063.407,2.829,2.829,0,0,0-.919,1.076,9.215,9.215,0,0,0-.546,1.946l-.691,3.352h-2.178Z" transform="translate(-74.106 -137.892)" fill="#fff"/>
      <path id="Path_25" data-name="Path 25" d="M252.047,148.325l2.33-11.272h2.177l-1.214,5.867,2.839-2.761h2.831l-3.241,2.968,1.723,5.2h-2.178l-1.108-3.775-1.473,1.322-.508,2.453Z" transform="translate(-76.935 -137.053)" fill="#fff"/>
      <path id="Path_26" data-name="Path 26" d="M264.695,148.828h2.156l-.44,2.13h-2.156Z" transform="translate(-79.79 -139.688)" fill="#fff"/>
    </g>
    <rect id="Rectangle_1" data-name="Rectangle 1" width="3.352" height="7.374" transform="translate(413.205 -233.276)" fill="#e23827"/>
  </g>
</svg>
